<svg id="room-service_2_" data-name="room-service (2)" xmlns="http://www.w3.org/2000/svg" width="46.133" height="46.133" viewBox="0 0 46.133 46.133">
  <path id="Path_1274" data-name="Path 1274" d="M43.826,15.378h-.815c-.476-6.849-7.217-12.3-15.46-12.3h-.782a2.281,2.281,0,0,0,.141-.769,2.307,2.307,0,1,0-4.613,0,2.281,2.281,0,0,0,.141.769h-.782c-8.242,0-14.984,5.453-15.46,12.3H5.382a2.307,2.307,0,0,0,0,4.613h8.535a2.033,2.033,0,0,0-.073.515v2.56a10.271,10.271,0,0,1-1.56,6.05c-.2.389-.425.814-.665,1.294a16.223,16.223,0,0,0-1.307,3.565,2.327,2.327,0,0,0-2.691.354c-3.351,3.2-5.328,4.3-6.209,4.671A2.3,2.3,0,0,0,0,41.122v2.7a2.307,2.307,0,0,0,2.307,2.307H13.3a2.307,2.307,0,0,0,1.441-.505l2.08-1.665a2.284,2.284,0,0,0,.329-3.261,21.8,21.8,0,0,1,5.76-4.415,3.786,3.786,0,0,0,1.166-.9,42.544,42.544,0,0,1,6.878-6.4,3.8,3.8,0,0,0,1.515-2.412,11.977,11.977,0,0,1,3.185-6.586h8.17a2.307,2.307,0,0,0,0-4.613ZM23.835,2.307a.769.769,0,1,1,.769.769A.769.769,0,0,1,23.835,2.307ZM21.657,4.613h5.894c7.388,0,13.438,4.767,13.921,10.764H7.736C8.219,9.38,14.269,4.613,21.657,4.613Zm-5.8,38.147-2.081,1.666a.769.769,0,0,1-.479.168H2.307a.769.769,0,0,1-.769-.769v-2.7a.761.761,0,0,1,.465-.7H2c1.194-.5,3.321-1.776,6.672-4.973a.783.783,0,0,1,.542-.216.759.759,0,0,1,.538.221l6.169,6.169a.769.769,0,0,1-.064,1.143Zm15.1-16.469a2.28,2.28,0,0,1-.9,1.45,44.057,44.057,0,0,0-7.141,6.628,2.266,2.266,0,0,1-.692.538,23.374,23.374,0,0,0-6.143,4.69l-4.441-4.441A14.026,14.026,0,0,1,12.994,31.1c.235-.471.453-.889.653-1.271a11.705,11.705,0,0,0,1.731-6.762v-2.56a.516.516,0,0,1,.515-.515,1.569,1.569,0,0,1,.977.344,1.482,1.482,0,0,1,.53.868,13.921,13.921,0,0,1,.284,2.633,24.434,24.434,0,0,1-.292,3.245,3.242,3.242,0,0,0,5.343,2.876L27.6,25.69a3.8,3.8,0,0,0,1.037-1.47c.908-2.257,2.029-3.822,3.022-4.229H33.6a14.873,14.873,0,0,0-2.639,6.3Zm-3.328-6.3h1.649a14.189,14.189,0,0,0-2.072,3.664,2.241,2.241,0,0,1-.621.878l-1.665,1.461c.166-.64.318-1.307.439-2.031a6.659,6.659,0,0,1,2.271-3.972Zm-3.787,3.717A16.887,16.887,0,0,1,22.6,28.032l-.873.769a1.758,1.758,0,0,1-2.413-.167,1.675,1.675,0,0,1-.4-1.339,25.712,25.712,0,0,0,.308-3.46,15.532,15.532,0,0,0-.314-2.935,3,3,0,0,0-.35-.91h6.961a8.086,8.086,0,0,0-1.673,3.717Zm19.98-5.255H5.382a.769.769,0,0,1,0-1.538H43.826a.769.769,0,0,1,0,1.538Z" transform="translate(0)" fill="#1a8ef1"/>
</svg>
