<svg xmlns="http://www.w3.org/2000/svg" width="68.735" height="57.94" viewBox="0 0 68.735 57.94">
  <g id="Group_3242" data-name="Group 3242" transform="translate(-81.19 -398.852)">
    <g id="Group_3136" data-name="Group 3136" transform="translate(103.508 454.689)">
      <g id="Group_3135" data-name="Group 3135" transform="translate(0 0)">
        <rect id="Rectangle_2074" data-name="Rectangle 2074" width="1.625" height="1.625" transform="translate(0 1.516) rotate(-68.832)" fill="#1a8ef1"/>
      </g>
    </g>
    <g id="Group_3138" data-name="Group 3138" transform="translate(104.682 451.658)">
      <g id="Group_3137" data-name="Group 3137" transform="translate(0 0)">
        <rect id="Rectangle_2075" data-name="Rectangle 2075" width="1.625" height="1.625" transform="translate(0 1.516) rotate(-68.832)" fill="#1a8ef1"/>
      </g>
    </g>
    <g id="Group_3140" data-name="Group 3140" transform="translate(105.855 408)">
      <g id="Group_3139" data-name="Group 3139" transform="translate(0)">
        <path id="Path_1273" data-name="Path 1273" d="M0,0H45.186V1.625H0Z" transform="translate(0 42.141) rotate(-68.839)" fill="#1a8ef1"/>
      </g>
    </g>
    <g id="car" transform="translate(127.051 410.852) rotate(21)">
      <g id="Group_3240" data-name="Group 3240">
        <g id="Group_3231" data-name="Group 3231" transform="translate(5.876 8.943)">
          <g id="Group_3230" data-name="Group 3230" transform="translate(0)">
            <path id="Path_1270" data-name="Path 1270" d="M173.6,251.345l-.629,6.229h-11.48l-.625-6.229a1.93,1.93,0,0,1,.856-1.805l.162-.108a9.649,9.649,0,0,1,10.7,0l.163.108A1.929,1.929,0,0,1,173.6,251.345Zm-1.571-.731-.163-.108a8.364,8.364,0,0,0-9.273,0l-.162.108a.645.645,0,0,0-.284.6l.509,5.069h9.153l.509-5.07A.645.645,0,0,0,172.033,250.615Z" transform="translate(-160.859 -247.813)" fill="#1a8ef1"/>
          </g>
        </g>
        <g id="Group_3233" data-name="Group 3233" transform="translate(5.935 26.433)">
          <g id="Group_3232" data-name="Group 3232" transform="translate(0 0)">
            <path id="Path_1271" data-name="Path 1271" d="M173.238,67.171l-1.25.694a8.336,8.336,0,0,1-8.141,0l-1.252-.694a1.938,1.938,0,0,1-.967-2.009l.584-3.51h11.409l.585,3.51A1.938,1.938,0,0,1,173.238,67.171Zm-.3-1.8-.4-2.432H163.3l-.406,2.433a.645.645,0,0,0,.323.67l1.25.694a7.055,7.055,0,0,0,6.889,0l1.25-.694A.649.649,0,0,0,172.933,65.373Z" transform="translate(-161.602 -61.652)" fill="#1a8ef1"/>
          </g>
        </g>
        <g id="Group_3235" data-name="Group 3235" transform="translate(5.908 4.157)">
          <g id="Group_3234" data-name="Group 3234" transform="translate(0 0)">
            <rect id="Rectangle_2123" data-name="Rectangle 2123" width="1.29" height="4.649" transform="translate(2.579 0) rotate(33.692)" fill="#1a8ef1"/>
          </g>
        </g>
        <g id="Group_3237" data-name="Group 3237" transform="translate(14.942 4.143)">
          <g id="Group_3236" data-name="Group 3236" transform="translate(0 0)">
            <rect id="Rectangle_2124" data-name="Rectangle 2124" width="4.65" height="1.29" transform="matrix(0.555, 0.832, -0.832, 0.555, 1.073, 0)" fill="#1a8ef1"/>
          </g>
        </g>
        <g id="Group_3239" data-name="Group 3239">
          <g id="Group_3238" data-name="Group 3238" transform="translate(0)">
            <path id="Path_1272" data-name="Path 1272" d="M112.162,16.651a.645.645,0,0,1-.6.064l-2.673-1.069-.311,3.695.923,11.026a7.028,7.028,0,0,1-3.9,6.912l-.509.253a11.054,11.054,0,0,1-9.8,0l-.509-.253a7.028,7.028,0,0,1-3.9-6.912l.925-11.026-.309-3.7-2.673,1.069a.645.645,0,0,1-.887-.6V14.411a1.926,1.926,0,0,1,1.216-1.8l2.02-.808-.27-3.21a7.054,7.054,0,0,1,4.275-7.082L97.4.568a7.144,7.144,0,0,1,5.586,0l2.215.946A7.054,7.054,0,0,1,109.479,8.6l-.269,3.21,2.02.808a1.926,1.926,0,0,1,1.215,1.8v1.706A.645.645,0,0,1,112.162,16.651ZM91.167,13.2l-1.529.612a.641.641,0,0,0-.406.6v.754l1.934-.774Zm17.048,17.276-.928-11.136.908-10.854A5.767,5.767,0,0,0,104.7,2.7l-2.215-.945a5.846,5.846,0,0,0-4.573,0L95.692,2.7A5.767,5.767,0,0,0,92.2,8.49l.9,10.851-.929,11.136a5.744,5.744,0,0,0,3.186,5.647l.509.253a9.755,9.755,0,0,0,8.652,0l.509-.253A5.745,5.745,0,0,0,108.215,30.477Zm2.94-16.066a.641.641,0,0,0-.406-.6l-1.529-.612v1.19l1.934.774Z" transform="translate(-87.943 0)" fill="#1a8ef1"/>
          </g>
        </g>
      </g>
      <g id="Group_3241" data-name="Group 3241" transform="translate(-34.175 0.265)">
        <g id="Group_3231-2" data-name="Group 3231" transform="translate(5.876 8.943)">
          <g id="Group_3230-2" data-name="Group 3230" transform="translate(0)">
            <path id="Path_1270-2" data-name="Path 1270" d="M173.6,251.345l-.629,6.229h-11.48l-.625-6.229a1.93,1.93,0,0,1,.856-1.805l.162-.108a9.649,9.649,0,0,1,10.7,0l.163.108A1.929,1.929,0,0,1,173.6,251.345Zm-1.571-.731-.163-.108a8.364,8.364,0,0,0-9.273,0l-.162.108a.645.645,0,0,0-.284.6l.509,5.069h9.153l.509-5.07A.645.645,0,0,0,172.033,250.615Z" transform="translate(-160.859 -247.813)" fill="#1a8ef1"/>
          </g>
        </g>
        <g id="Group_3233-2" data-name="Group 3233" transform="translate(5.935 26.433)">
          <g id="Group_3232-2" data-name="Group 3232" transform="translate(0 0)">
            <path id="Path_1271-2" data-name="Path 1271" d="M173.238,67.171l-1.25.694a8.336,8.336,0,0,1-8.141,0l-1.252-.694a1.938,1.938,0,0,1-.967-2.009l.584-3.51h11.409l.585,3.51A1.938,1.938,0,0,1,173.238,67.171Zm-.3-1.8-.4-2.432H163.3l-.406,2.433a.645.645,0,0,0,.323.67l1.25.694a7.055,7.055,0,0,0,6.889,0l1.25-.694A.649.649,0,0,0,172.933,65.373Z" transform="translate(-161.602 -61.652)" fill="#1a8ef1"/>
          </g>
        </g>
        <g id="Group_3235-2" data-name="Group 3235" transform="translate(5.908 4.157)">
          <g id="Group_3234-2" data-name="Group 3234" transform="translate(0 0)">
            <rect id="Rectangle_2123-2" data-name="Rectangle 2123" width="1.29" height="4.649" transform="translate(2.579 0) rotate(33.692)" fill="#1a8ef1"/>
          </g>
        </g>
        <g id="Group_3237-2" data-name="Group 3237" transform="translate(14.942 4.143)">
          <g id="Group_3236-2" data-name="Group 3236" transform="translate(0 0)">
            <rect id="Rectangle_2124-2" data-name="Rectangle 2124" width="4.65" height="1.29" transform="matrix(0.555, 0.832, -0.832, 0.555, 1.073, 0)" fill="#1a8ef1"/>
          </g>
        </g>
        <g id="Group_3239-2" data-name="Group 3239">
          <g id="Group_3238-2" data-name="Group 3238" transform="translate(0)">
            <path id="Path_1272-2" data-name="Path 1272" d="M112.162,16.651a.645.645,0,0,1-.6.064l-2.673-1.069-.311,3.695.923,11.026a7.028,7.028,0,0,1-3.9,6.912l-.509.253a11.054,11.054,0,0,1-9.8,0l-.509-.253a7.028,7.028,0,0,1-3.9-6.912l.925-11.026-.309-3.7-2.673,1.069a.645.645,0,0,1-.887-.6V14.411a1.926,1.926,0,0,1,1.216-1.8l2.02-.808-.27-3.21a7.054,7.054,0,0,1,4.275-7.082L97.4.568a7.144,7.144,0,0,1,5.586,0l2.215.946A7.054,7.054,0,0,1,109.479,8.6l-.269,3.21,2.02.808a1.926,1.926,0,0,1,1.215,1.8v1.706A.645.645,0,0,1,112.162,16.651ZM91.167,13.2l-1.529.612a.641.641,0,0,0-.406.6v.754l1.934-.774Zm17.048,17.276-.928-11.136.908-10.854A5.767,5.767,0,0,0,104.7,2.7l-2.215-.945a5.846,5.846,0,0,0-4.573,0L95.692,2.7A5.767,5.767,0,0,0,92.2,8.49l.9,10.851-.929,11.136a5.744,5.744,0,0,0,3.186,5.647l.509.253a9.755,9.755,0,0,0,8.652,0l.509-.253A5.745,5.745,0,0,0,108.215,30.477Zm2.94-16.066a.641.641,0,0,0-.406-.6l-1.529-.612v1.19l1.934.774Z" transform="translate(-87.943 0)" fill="#1a8ef1"/>
          </g>
        </g>
      </g>
    </g>
  </g>
</svg>
