<svg xmlns="http://www.w3.org/2000/svg" width="45.008" height="45.448" viewBox="0 0 45.008 45.448">
  <g id="Group_3213" data-name="Group 3213" transform="translate(19205.815 -19691.843)">
    <path id="Path_1222" data-name="Path 1222" d="M245.332,341.332h1.876V354.46h-1.876Zm0,0" transform="translate(-19429.58 19382.828)" fill="#1a8ef1"/>
    <path id="Path_1223" data-name="Path 1223" d="M96,298.668h28.13v1.875H96Zm0,0" transform="translate(-19293.377 19421.744)" fill="#1a8ef1"/>
    <path id="Path_1225" data-name="Path 1225" d="M303.356,208.525a.919.919,0,0,1-.37-.076.937.937,0,0,1-.492-1.231l2.813-6.564a.936.936,0,0,1,.862-.568h6.564a2.817,2.817,0,0,0,2.813-2.813v-12.19a1.877,1.877,0,0,0-1.876-1.875h-.937c-.658,0-1.257.435-2.065,1.5-.906,1.2-3.655,4.572-3.771,4.714a.94.94,0,0,1-.728.345h-4.688a.938.938,0,0,0-.938.938v1.875a.938.938,0,1,1-1.875,0v-1.875a2.816,2.816,0,0,1,2.813-2.813h4.242c.739-.91,2.731-3.366,3.449-4.316a4.651,4.651,0,0,1,3.561-2.248h.937a3.755,3.755,0,0,1,3.751,3.751v12.19a4.694,4.694,0,0,1-4.688,4.688h-5.946l-2.57,6A.936.936,0,0,1,303.356,208.525Zm0,0" transform="translate(-19478.229 19528.766)" fill="#1a8ef1"/>
    <path id="Path_1226" data-name="Path 1226" d="M299.608,315.546a.939.939,0,0,1-.889-1.235l3.109-9.329a3.744,3.744,0,0,1,3.557-2.564h2.661v-2.813a.938.938,0,0,1,1.876,0v3.751a.937.937,0,0,1-.938.938h-3.6a1.87,1.87,0,0,0-1.778,1.281l-3.11,9.33a.939.939,0,0,1-.89.641Zm0,0" transform="translate(-19478.232 19421.744)" fill="#1a8ef1"/>
    <path id="Path_1227" data-name="Path 1227" d="M406.266,261.636a.937.937,0,0,1-.749-1.5l2.813-3.751a.937.937,0,0,1,1.5,1.124l-2.813,3.751A.932.932,0,0,1,406.266,261.636Zm0,0" transform="translate(-19575.514 19460.65)" fill="#1a8ef1"/>
    <path id="Path_1229" data-name="Path 1229" d="M14.065,208.525a.936.936,0,0,1-.862-.568l-2.57-6H4.688A4.694,4.694,0,0,1,0,197.273v-12.19a3.755,3.755,0,0,1,3.751-3.751h.937a4.647,4.647,0,0,1,3.561,2.248c.719.95,2.71,3.406,3.449,4.316H15.94a2.816,2.816,0,0,1,2.813,2.813v1.875a.938.938,0,1,1-1.875,0v-1.875a.939.939,0,0,0-.938-.938H11.252a.936.936,0,0,1-.727-.345c-.116-.143-2.867-3.518-3.771-4.715-.808-1.068-1.406-1.5-2.066-1.5H3.751a1.877,1.877,0,0,0-1.876,1.875v12.19a2.817,2.817,0,0,0,2.813,2.813h6.564a.936.936,0,0,1,.862.568l2.813,6.564a.938.938,0,0,1-.492,1.231.919.919,0,0,1-.369.076Zm0,0" transform="translate(-19205.814 19528.766)" fill="#1a8ef1"/>
    <path id="Path_1230" data-name="Path 1230" d="M95.647,315.546a.939.939,0,0,1-.89-.641l-3.109-9.329a1.873,1.873,0,0,0-1.779-1.281h-3.6a.938.938,0,0,1-.938-.938v-3.751a.938.938,0,0,1,1.876,0v2.813h2.661a3.745,3.745,0,0,1,3.558,2.564l3.109,9.329a.937.937,0,0,1-.593,1.186A.952.952,0,0,1,95.647,315.546Zm0,0" transform="translate(-19283.646 19421.744)" fill="#1a8ef1"/>
    <path id="Path_1231" data-name="Path 1231" d="M57.082,261.636a.938.938,0,0,1-.751-.375l-2.813-3.751a.938.938,0,0,1,1.5-1.124l2.813,3.751a.937.937,0,0,1-.749,1.5Zm0,0" transform="translate(-19254.455 19460.65)" fill="#1a8ef1"/>
    <path id="Path_1232" data-name="Path 1232" d="M175.94,141.127a.936.936,0,0,1-.937-.937v-6.564a3.755,3.755,0,0,0-3.751-3.751h-5.626a3.755,3.755,0,0,0-3.751,3.751v2.813a.938.938,0,1,1-1.875,0v-2.813A5.632,5.632,0,0,1,165.626,128h5.626a5.632,5.632,0,0,1,5.626,5.626v6.564a.937.937,0,0,1-.938.937Zm0,0" transform="translate(-19351.75 19577.408)" fill="#1a8ef1"/>
    <path id="Path_1264" data-name="Path 1264" d="M213.269,15.871a4.468,4.468,0,0,0,4.463-4.463V8.624a4.463,4.463,0,0,0-8.926,0v2.784A4.468,4.468,0,0,0,213.269,15.871Zm-2.95-7.247a2.95,2.95,0,1,1,5.9,0v2.784a2.95,2.95,0,1,1-5.9,0Z" transform="translate(-19396.152 19687.682)" fill="#1a8ef1"/>
    <path id="Path_1265" data-name="Path 1265" d="M213.269,15.871a4.468,4.468,0,0,0,4.463-4.463V8.624a4.463,4.463,0,0,0-8.926,0v2.784A4.468,4.468,0,0,0,213.269,15.871Zm-2.95-7.247a2.95,2.95,0,1,1,5.9,0v2.784a2.95,2.95,0,1,1-5.9,0Z" transform="translate(-19378.539 19692.352)" fill="#1a8ef1"/>
    <path id="Path_1266" data-name="Path 1266" d="M213.269,15.871a4.468,4.468,0,0,0,4.463-4.463V8.624a4.463,4.463,0,0,0-8.926,0v2.784A4.468,4.468,0,0,0,213.269,15.871Zm-2.95-7.247a2.95,2.95,0,1,1,5.9,0v2.784a2.95,2.95,0,1,1-5.9,0Z" transform="translate(-19414.621 19692.354)" fill="#1a8ef1"/>
  </g>
</svg>
