<svg id="Group_3229" data-name="Group 3229" xmlns="http://www.w3.org/2000/svg" width="53.08" height="38.25" viewBox="0 0 53.08 38.25">
  <g id="Group_3228" data-name="Group 3228" transform="translate(0 0)">
    <path id="Path_1263" data-name="Path 1263" d="M52.322,175.586H49.5V155.533h.888a2.768,2.768,0,0,0,0-5.535H39.829a20.97,20.97,0,0,0-.722-4.793,8.533,8.533,0,0,0-8.23-6.21H22.348a8.537,8.537,0,0,0-8.229,6.206h0a20.966,20.966,0,0,0-.725,4.8H2.839a2.768,2.768,0,0,0,0,5.535h.888v20.053H.9a.829.829,0,1,0,0,1.659H52.322a.829.829,0,1,0,0-1.659Zm-36.6-29.942h0a6.873,6.873,0,0,1,6.631-4.99h8.529a6.87,6.87,0,0,1,6.631,4.993A19.307,19.307,0,0,1,38.18,150H15.042a19.294,19.294,0,0,1,.675-4.354ZM1.73,152.766a1.11,1.11,0,0,1,1.109-1.109H50.384a1.109,1.109,0,0,1,0,2.218H2.838A1.11,1.11,0,0,1,1.73,152.766Zm3.655,22.82V155.533H47.837v20.053Z" transform="translate(-0.071 -138.995)" fill="#1a8ef1"/>
  </g>
</svg>
