<svg xmlns="http://www.w3.org/2000/svg" width="40.245" height="40.243" viewBox="0 0 40.245 40.243">
  <g id="seauser" transform="translate(-186.572 -186.573)">
    <path id="Path_1276" data-name="Path 1276" d="M193.017,215.69a16.042,16.042,0,0,0,9.745,3.263q.667,0,1.325-.053a15.947,15.947,0,0,0,7.391-2.493l7.851,8.815a4.2,4.2,0,0,0,3.049,1.588c.08,0,.161.007.242.007a4.2,4.2,0,0,0,2.637-7.46l-8.843-7.867a16.2,16.2,0,1,0-23.4,4.2Zm8.608,1.541c-.125-.01-.247-.028-.371-.041-.251-.026-.5-.052-.749-.09-.145-.022-.287-.053-.431-.08-.224-.042-.449-.084-.671-.137-.149-.035-.3-.078-.445-.117-.212-.057-.424-.117-.634-.184-.149-.048-.3-.1-.442-.153-.206-.073-.41-.15-.612-.233q-.215-.088-.428-.185-.3-.136-.6-.285c-.137-.069-.273-.139-.407-.213-.2-.109-.4-.224-.59-.343-.127-.077-.254-.154-.378-.235-.059-.038-.115-.081-.173-.12a10.17,10.17,0,0,1,16.136,0c-.055.037-.108.078-.164.114-.133.087-.268.169-.4.251-.186.113-.373.223-.563.327-.141.077-.284.151-.427.224q-.286.144-.577.276-.221.1-.445.192c-.2.08-.4.155-.6.227-.151.054-.3.108-.456.157-.205.066-.413.124-.621.18-.152.041-.3.084-.456.12-.219.051-.44.093-.662.135-.146.027-.291.059-.439.081-.246.038-.5.064-.746.09-.126.013-.25.032-.376.041-.377.029-.756.045-1.139.045s-.76-.017-1.137-.046Zm22.555,3.41a2.517,2.517,0,0,1,.222,3.759,2.448,2.448,0,0,1-1.927.735,2.547,2.547,0,0,1-1.861-.991l-7.768-8.725a16.284,16.284,0,0,0,2.583-2.564ZM202.762,188.25a14.529,14.529,0,0,1,14.512,14.513,14.364,14.364,0,0,1-5.118,11.062,11.794,11.794,0,0,0-18.79,0,14.359,14.359,0,0,1-5.118-11.061,14.53,14.53,0,0,1,14.513-14.513Z" transform="translate(0)" fill="#1a8ef1"/>
    <path id="Path_1277" data-name="Path 1277" d="M15.583,5.913A5.68,5.68,0,0,0,9.91,11.586V13.52a5.673,5.673,0,0,0,11.347,0V11.586a5.68,5.68,0,0,0-5.673-5.673Zm4,7.607a4,4,0,1,1-7.991,0V11.586a4,4,0,1,1,7.991,0Z" transform="translate(187.292 187.172)" fill="#1a8ef1"/>
  </g>
</svg>
