<svg xmlns="http://www.w3.org/2000/svg" width="27.32" height="27.841" viewBox="0 0 27.32 27.841">
  <g id="Layer_20" transform="translate(-1.359 -1.06)">
    <path id="Path_1278" data-name="Path 1278" d="M26.324,7.738,18.17,2.046a5.524,5.524,0,0,0-6.3,0h0L3.713,7.738a5.511,5.511,0,0,0-2.354,4.515V23.4a5.511,5.511,0,0,0,5.5,5.5H23.175a5.511,5.511,0,0,0,5.5-5.5V12.253a5.505,5.505,0,0,0-2.355-4.515ZM11.005,27.221V18.715a1.1,1.1,0,0,1,1.1-1.1h5.824a1.1,1.1,0,0,1,1.1,1.1v8.506ZM27,23.4a3.829,3.829,0,0,1-3.825,3.825H20.712V18.715a2.785,2.785,0,0,0-2.781-2.782H12.107a2.785,2.785,0,0,0-2.781,2.782v8.506H6.864A3.829,3.829,0,0,1,3.038,23.4V12.253A3.827,3.827,0,0,1,4.674,9.116l8.155-5.692h0a3.838,3.838,0,0,1,4.379,0l8.154,5.692A3.826,3.826,0,0,1,27,12.253Z" fill="#1a8ef1"/>
  </g>
</svg>
