<svg xmlns="http://www.w3.org/2000/svg" width="35.003" height="47.989" viewBox="0 0 35.003 47.989">
  <g id="Touch_Screen" data-name="Touch Screen" transform="translate(-6.999 -0.011)">
    <path id="Path_1430" data-name="Path 1430" d="M27.92,14.15A8,8,0,1,0,12,13c0,.95.05,2,1.07,2a1,1,0,0,0,1-1.15,6,6,0,1,1,11.88,0,1,1,0,0,0,1.97.3Z" fill="#1a8ef1"/>
    <path id="Path_1431" data-name="Path 1431" d="M20,2A11,11,0,0,1,30.65,15.75a1,1,0,1,0,1.94.5,13,13,0,1,0-25.18,0,1,1,0,0,0,1.94-.5A11,11,0,0,1,20,2Z" fill="#1a8ef1"/>
    <path id="Path_1432" data-name="Path 1432" d="M36,23.57a4,4,0,0,0-6.18-2.89A4,4,0,0,0,24,18.56V14.17a4,4,0,0,0-6.75-3.07C15.59,12.67,16,13.43,16,25c-2.7-2-6-.8-6,2v8A13,13,0,0,0,23,48h6A13,13,0,0,0,42,35V27.17a4,4,0,0,0-6-3.6ZM40,35A11,11,0,0,1,29,46H23A11,11,0,0,1,12,35V27c0-1.4,2-1.23,3.09-.16S16,28.86,16,35a1,1,0,0,0,2,0V14a2,2,0,0,1,2.11-2A2.13,2.13,0,0,1,22,14.17V29a1,1,0,0,0,2,0V22a2,2,0,0,1,4,0v7a1,1,0,0,0,2,0V24a2,2,0,0,1,4,0v5a1,1,0,0,0,2,0c0-2.17-.13-2.74.62-3.45A2,2,0,0,1,40,27.17Z" fill="#1a8ef1"/>
  </g>
</svg>
