<svg id="Group_3219" data-name="Group 3219" xmlns="http://www.w3.org/2000/svg" width="28.864" height="44.266" viewBox="0 0 28.864 44.266">
  <path id="Path_1250" data-name="Path 1250" d="M117.934,7.948a3.492,3.492,0,0,0-3.489-3.489h-7.12V.865A.865.865,0,0,0,106.462,0h-5.919a.865.865,0,0,0-.865.865V4.459h-7.12A3.492,3.492,0,0,0,89.07,7.948V40.777a3.492,3.492,0,0,0,3.488,3.489h21.888a3.492,3.492,0,0,0,3.489-3.489V19.39a.865.865,0,0,0-1.729,0V40.777a1.761,1.761,0,0,1-1.759,1.759H92.558A1.761,1.761,0,0,1,90.8,40.777V7.948a1.761,1.761,0,0,1,1.759-1.759h7.12v2.73H98.8a.865.865,0,0,0,0,1.729h9.4a.865.865,0,0,0,0-1.729h-.875V6.189h7.12a1.761,1.761,0,0,1,1.759,1.759V20.636a.865.865,0,1,0,1.729,0V7.948ZM105.6,1.729v7.19h-4.19V5.324s0-.006,0-.008V1.729Z" transform="translate(-89.07)" fill="#1a8ef1"/>
  <path id="Path_1251" data-name="Path 1251" d="M171.356,164.966a2.313,2.313,0,0,0,.532-1.469V151.212a2.3,2.3,0,0,0-2.3-2.3h-12.98a2.3,2.3,0,0,0-2.3,2.3V163.5a2.327,2.327,0,0,0,2.3,2.3h12.98A2.315,2.315,0,0,0,171.356,164.966Zm-1.2-13.754v9.809a4.7,4.7,0,0,0-1.742-1.123l-2.183-.795a.283.283,0,0,1-.184-.231l-.1-.755a4.386,4.386,0,0,0,1.541-3.338v-1.474a4.372,4.372,0,0,0-.9-2.666h3a.573.573,0,0,1,.573.573Zm-.392,12.827a.6.6,0,0,1-.181.03H156.605a.579.579,0,0,1-.188-.032l.034-.2a2.979,2.979,0,0,1,1.916-2.31l2.179-.794a2.006,2.006,0,0,0,1.309-1.628l.013-.1a4.442,4.442,0,0,0,2.454,0l.013.1a2.006,2.006,0,0,0,1.307,1.629l2.182.794a2.979,2.979,0,0,1,1.917,2.311l.034.2Zm-4-10.734v1.474a2.666,2.666,0,0,1-5.332,0v-1.474a2.666,2.666,0,0,1,5.332,0Zm-9.156-2.666h3a4.372,4.372,0,0,0-.9,2.666v1.474a4.386,4.386,0,0,0,1.542,3.339l-.1.755a.283.283,0,0,1-.186.23l-2.18.795a4.7,4.7,0,0,0-1.743,1.124v-9.81A.574.574,0,0,1,156.605,150.639Z" transform="translate(-148.663 -136.036)" fill="#1a8ef1"/>
  <path id="Path_1253" data-name="Path 1253" d="M168.3,432.774a.865.865,0,0,0,.865.865H182.6a.865.865,0,0,0,0-1.729H169.169A.865.865,0,0,0,168.3,432.774Z" transform="translate(-161.454 -396.568)" fill="#1a8ef1"/>
</svg>
