<svg id="date" xmlns="http://www.w3.org/2000/svg" width="27" height="27" viewBox="0 0 27 27">
  <g id="Group_3221" data-name="Group 3221">
    <g id="Group_3220" data-name="Group 3220">
      <path id="Path_1256" data-name="Path 1256" d="M24.107,2.893H21.214V.964a.964.964,0,0,0-1.929,0V2.893H7.714V.964a.964.964,0,1,0-1.929,0V2.893H2.893A2.893,2.893,0,0,0,0,5.786V24.107A2.893,2.893,0,0,0,2.893,27H24.107A2.893,2.893,0,0,0,27,24.107V5.786A2.893,2.893,0,0,0,24.107,2.893Zm.964,21.214a.964.964,0,0,1-.964.964H2.893a.964.964,0,0,1-.964-.964V11.571H25.071Zm0-14.464H1.929V5.786a.964.964,0,0,1,.964-.964H5.786V6.75a.964.964,0,1,0,1.929,0V4.821H19.286V6.75a.964.964,0,1,0,1.929,0V4.821h2.893a.964.964,0,0,1,.964.964V9.643Z" fill="#3c5774"/>
    </g>
  </g>
  <g id="Group_3223" data-name="Group 3223" transform="translate(6.762 13.512)">
    <g id="Group_3222" data-name="Group 3222">
      <path id="Path_1257" data-name="Path 1257" d="M132.858,239.414a.964.964,0,0,0-1.34,0l-7.033,7.033-3.175-3.175a.964.964,0,0,0-1.364,1.363l3.857,3.857a.964.964,0,0,0,1.363,0l7.714-7.714A.964.964,0,0,0,132.858,239.414Z" transform="translate(-119.676 -239.143)" fill="#3c5774"/>
    </g>
  </g>
</svg>
