<svg xmlns="http://www.w3.org/2000/svg" width="24.632" height="29.8" viewBox="0 0 24.632 29.8">
  <g id="Layer_2" transform="translate(-3.684 -1.1)">
    <path id="Path_1258" data-name="Path 1258" d="M27.943,22.07l-.6-1a8.354,8.354,0,0,1-1.191-4.3v-5.52a10.151,10.151,0,1,0-20.3,0v5.52a8.354,8.354,0,0,1-1.191,4.3l-.6,1a2.584,2.584,0,0,0,2.216,3.914H25.728a2.583,2.583,0,0,0,2.215-3.914ZM26.41,23.786a.769.769,0,0,1-.682.4H6.272A.784.784,0,0,1,5.6,23l.6-1a10.154,10.154,0,0,0,1.448-5.225v-5.52a8.352,8.352,0,1,1,16.7,0v5.52A10.148,10.148,0,0,0,25.8,22l.6,1a.77.77,0,0,1,.009.789Z" fill="#3c5774"/>
    <path id="Path_1259" data-name="Path 1259" d="M19.087,27.758A3.9,3.9,0,0,1,16,29.1a3.9,3.9,0,0,1-3.087-1.342.9.9,0,0,0-1.418,1.11A5.7,5.7,0,0,0,16,30.9a5.7,5.7,0,0,0,4.505-2.033.9.9,0,1,0-1.418-1.109Z" fill="#3c5774"/>
  </g>
</svg>
