<svg xmlns="http://www.w3.org/2000/svg" width="29.8" height="29.8" viewBox="0 0 29.8 29.8">
  <g id="Layer_5" transform="translate(-1.1 -1.1)">
    <path id="Path_1260" data-name="Path 1260" d="M16,1.1A14.9,14.9,0,1,0,30.9,16,14.917,14.917,0,0,0,16,1.1ZM7.916,26.288a13.041,13.041,0,0,1,16.168,0,13.026,13.026,0,0,1-16.168,0ZM25.43,25.071a14.807,14.807,0,0,0-18.86,0,13.1,13.1,0,1,1,18.86,0Z" fill="#3c5774"/>
    <path id="Path_1261" data-name="Path 1261" d="M16,5.913A6.1,6.1,0,0,0,9.91,12v2.076a6.09,6.09,0,0,0,12.18,0V12A6.1,6.1,0,0,0,16,5.913Zm4.289,8.165a4.289,4.289,0,1,1-8.578,0V12a4.289,4.289,0,1,1,8.578,0Z" fill="#3c5774"/>
  </g>
</svg>
