<svg xmlns="http://www.w3.org/2000/svg" xmlns:xlink="http://www.w3.org/1999/xlink" width="70" height="70" viewBox="0 0 70 70">
  <defs>
    <filter id="Card" x="0" y="0" width="70" height="70" filterUnits="userSpaceOnUse">
      <feOffset dx="2" dy="2" input="SourceAlpha"/>
      <feGaussianBlur stdDeviation="2" result="blur"/>
      <feFlood flood-color="#eee"/>
      <feComposite operator="in" in2="blur"/>
      <feComposite in="SourceGraphic"/>
    </filter>
  </defs>
  <g transform="matrix(1, 0, 0, 1, 0, 0)" filter="url(#Card)">
    <g id="Card-2" data-name="Card" transform="translate(4 4)" fill="#fff" stroke="#dcdcdc" stroke-width="1">
      <rect width="58" height="58" rx="6" stroke="none"/>
      <rect x="0.5" y="0.5" width="57" height="57" rx="5.5" fill="none"/>
    </g>
  </g>
  <path id="Path_1236" data-name="Path 1236" d="M47.671,11.072V6.829H43.428a1.414,1.414,0,0,1,0-2.829H48.18A2.322,2.322,0,0,1,50.5,6.32v4.752a1.414,1.414,0,0,1-2.829,0Z" transform="translate(-4.098 16)" fill="#1a8ef1"/>
  <path id="Path_1237" data-name="Path 1237" d="M4,11.072V6.32A2.322,2.322,0,0,1,6.32,4h4.752a1.414,1.414,0,0,1,0,2.829H6.829v4.243a1.414,1.414,0,0,1-2.829,0Z" transform="translate(16 16)" fill="#1a8ef1"/>
  <path id="Path_1238" data-name="Path 1238" d="M48.18,50.5H43.428a1.414,1.414,0,0,1,0-2.829h4.243V43.428a1.414,1.414,0,0,1,2.829,0V48.18a2.322,2.322,0,0,1-2.32,2.32Z" transform="translate(-4.098 -4.098)" fill="#1a8ef1"/>
  <path id="Path_1239" data-name="Path 1239" d="M11.072,50.5H6.32A2.322,2.322,0,0,1,4,48.18V43.428a1.414,1.414,0,0,1,2.829,0v4.243h4.243a1.414,1.414,0,0,1,0,2.829Z" transform="translate(16 -4.098)" fill="#1a8ef1"/>
  <path id="Path_1240" data-name="Path 1240" d="M29,31.829H5.428a1.414,1.414,0,0,1,0-2.829H29A1.414,1.414,0,0,1,29,31.829Z" transform="translate(15.986 2.787)" fill="#1a8ef1"/>
</svg>
